<?xml version="1.0" encoding="UTF-8"?>
<svg id="Layer_2" data-name="Layer 2" xmlns="http://www.w3.org/2000/svg" viewBox="0 0 1356.45 172.85">
  <defs>
    <style>
      .cls-1 {
        fill-rule: evenodd;
      }
    </style>
  </defs>
  <g id="Layer_1-2" data-name="Layer 1">
    <g>
      <g>
        <path class="cls-1" d="m41.91,103.76c.02-3.47-1.2-6.46-3.67-8.98-2.47-2.5-5.46-3.75-8.93-3.77l-12.93-.08-.36,58.73,12.94.08c3.47.02,6.48-1.19,8.98-3.66,2.51-2.49,3.76-5.45,3.78-8.96l.21-33.36h0Zm.46-74.69c.02-3.65-1.2-6.72-3.67-9.21-2.47-2.49-5.46-3.78-8.94-3.8l-12.93-.08-.36,58.99,12.93.08c3.47.02,6.48-1.17,8.98-3.65,2.51-2.5,3.77-5.53,3.79-9.18l.2-33.15h0Zm15.74,33.25c-.03,4.13-.85,7.99-2.44,11.54-1.61,3.56-3.82,6.67-6.65,9.29,2.79,2.69,4.97,5.75,6.54,9.26,1.54,3.49,2.32,7.32,2.29,11.45l-.2,33.35c-.02,3.99-.8,7.71-2.32,11.07-1.51,3.39-3.61,6.42-6.28,9.06-2.68,2.64-5.72,4.67-9.13,6.17-3.42,1.47-7.11,2.21-11.09,2.18l-20.92-.12c-2.15-.02-4.01-.79-5.58-2.28C.77,161.76-.02,159.88,0,157.52L.91,7.93c.01-2.2.82-4.05,2.41-5.62C4.91.77,6.78-.02,8.93,0l20.92.13c3.98.02,7.66.77,11.06,2.31,3.39,1.5,6.41,3.58,9.04,6.27,2.64,2.65,4.7,5.76,6.18,9.26,1.47,3.49,2.2,7.21,2.18,11.2l-.2,33.15h0Z"/>
        <path class="cls-1" d="m114.3,29.5c.02-3.65-1.18-6.72-3.65-9.21-2.47-2.48-5.45-3.78-8.94-3.8-3.64-.02-6.72,1.23-9.24,3.69-2.5,2.46-3.77,5.51-3.79,9.16l-.66,108.05c-.02,3.52,1.21,6.49,3.68,9.01,2.49,2.5,5.56,3.75,9.2,3.77,3.49.02,6.49-1.19,8.98-3.66,2.51-2.48,3.75-5.45,3.77-8.96l.66-108.05h0ZM101.8.57c3.98.02,7.67.78,11.06,2.31,3.39,1.5,6.41,3.58,9.07,6.27,2.62,2.65,4.69,5.76,6.15,9.25,1.49,3.49,2.2,7.22,2.18,11.2l-.66,108.05c-.02,3.99-.78,7.73-2.32,11.22-1.5,3.46-3.61,6.48-6.25,9.05-2.69,2.57-5.73,4.55-9.15,6.05-3.41,1.47-7.1,2.2-11.09,2.18-3.98-.03-7.7-.81-11.19-2.32-3.47-1.53-6.53-3.55-9.16-6.15-2.65-2.6-4.72-5.65-6.18-9.12-1.46-3.51-2.18-7.25-2.16-11.25l.66-108.05c.02-3.98.79-7.7,2.29-11.17,1.51-3.48,3.61-6.56,6.29-9.18,2.65-2.66,5.74-4.71,9.23-6.16,3.51-1.49,7.24-2.2,11.22-2.17h0Z"/>
        <path class="cls-1" d="m215.07,1.26c4,.03,7.74.78,11.21,2.31,3.47,1.5,6.53,3.58,9.16,6.27,2.64,2.64,4.68,5.76,6.18,9.25,1.48,3.49,2.19,7.21,2.16,11.2l-.81,132.72c0,1.17-.42,2.13-1.25,2.86-.84.74-1.74,1.12-2.73,1.11l-7.98-.05c-2.66-.02-3.96-1.38-3.95-4.02l.82-132.72c.02-3.64-1.21-6.72-3.69-9.21-2.47-2.49-5.54-3.78-9.2-3.8-3.47-.02-6.47,1.23-8.97,3.69-2.5,2.46-3.78,5.51-3.8,9.16l-.81,132.72c-.02,2.65-1.35,3.98-4.01,3.97l-7.95-.05c-2.67-.01-3.99-1.37-3.98-4.02l.81-132.72c.02-3.65-1.19-6.72-3.67-9.21-2.48-2.48-5.46-3.78-8.94-3.8-3.67-.03-6.73,1.23-9.23,3.69-2.51,2.46-3.78,5.51-3.8,9.16l-.81,132.72c-.02,2.65-1.34,3.99-4,3.97l-7.97-.05c-1,0-1.91-.4-2.74-1.15-.82-.73-1.22-1.7-1.22-2.87l.81-132.72c.02-3.99.79-7.7,2.31-11.18,1.5-3.47,3.59-6.56,6.28-9.18,2.66-2.65,5.75-4.7,9.26-6.16,3.48-1.49,7.22-2.19,11.21-2.17,3.98.02,7.76.84,11.32,2.41,3.55,1.59,6.67,3.82,9.28,6.67,2.69-2.82,5.79-5.01,9.39-6.56,3.57-1.53,7.36-2.3,11.32-2.28h0Z"/>
        <path class="cls-1" d="m299.35,105.33c.02-3.47-1.21-6.46-3.68-8.98-2.48-2.5-5.46-3.75-8.94-3.77l-12.95-.08-.36,58.74,12.95.08c3.48.02,6.48-1.19,8.99-3.67,2.5-2.48,3.77-5.44,3.79-8.96l.2-33.35h0Zm.46-74.69c.02-3.65-1.22-6.72-3.68-9.21-2.48-2.49-5.46-3.78-8.94-3.8l-12.95-.08-.36,58.99,12.95.08c3.48.02,6.48-1.17,8.99-3.65,2.5-2.5,3.77-5.52,3.79-9.18l.21-33.15h0Zm15.71,33.25c-.02,4.14-.84,7.99-2.43,11.55-1.6,3.56-3.81,6.66-6.65,9.29,2.81,2.68,4.99,5.75,6.54,9.26,1.55,3.48,2.32,7.31,2.3,11.45l-.2,33.35c-.02,4-.79,7.72-2.3,11.08-1.54,3.39-3.62,6.42-6.27,9.06-2.7,2.64-5.72,4.68-9.12,6.17-3.44,1.47-7.12,2.21-11.1,2.18l-20.93-.12c-2.16-.02-4.02-.78-5.58-2.29-1.58-1.52-2.34-3.4-2.32-5.76l.91-149.6c.01-2.2.8-4.06,2.39-5.62,1.58-1.54,3.44-2.33,5.61-2.31l20.93.13c3.99.03,7.66.78,11.07,2.31,3.39,1.5,6.39,3.58,9.05,6.28,2.62,2.64,4.67,5.75,6.16,9.25,1.47,3.49,2.18,7.22,2.16,11.2l-.21,33.15h0Z"/>
        <path class="cls-1" d="m371.47,76.92l.28-45.85c.03-3.65-1.2-6.72-3.67-9.2-2.47-2.49-5.46-3.78-8.94-3.8-3.66-.03-6.73,1.23-9.23,3.69-2.52,2.46-3.79,5.51-3.82,9.16l-.28,45.84,25.66.16h0Zm-12.23-74.78c3.99.02,7.65.78,11.06,2.31,3.39,1.49,6.4,3.58,9.05,6.27,2.64,2.65,4.71,5.76,6.18,9.26,1.48,3.49,2.2,7.21,2.17,11.19l-.81,132.72c-.02,2.65-1.35,3.99-4.02,3.97l-7.96-.05c-2.65-.01-3.98-1.37-3.96-4.02l.43-70.97-25.66-.15-.43,70.97c-.02,2.65-1.32,3.99-3.99,3.97l-7.97-.05c-.98,0-1.9-.4-2.72-1.14-.85-.74-1.24-1.71-1.23-2.87l.81-132.72c.02-3.98.78-7.7,2.32-11.17,1.5-3.48,3.59-6.56,6.28-9.18,2.65-2.66,5.75-4.71,9.24-6.17,3.49-1.49,7.24-2.19,11.23-2.17h0Z"/>
        <path class="cls-1" d="m456.22,3.96c.72.85,1.09,1.77,1.08,2.76l-.35,58.02c-.04,6.61-2.03,12.42-5.96,17.37-3.94,4.97-8.89,8.32-14.89,10.12l-.44,71.96c0,1.17-.42,2.13-1.26,2.86-.84.74-1.76,1.12-2.73,1.11l-7.99-.05c-2.63-.01-3.96-1.37-3.95-4.02l.43-71.97c-6.12-1.87-11.12-5.27-15.01-10.29-3.85-5.01-5.77-10.84-5.73-17.44l.36-58.02c0-.99.38-1.92,1.13-2.75.75-.82,1.7-1.22,2.87-1.21l7.96.04c1.18.01,2.12.42,2.86,1.25.75.84,1.12,1.77,1.11,2.76l-.35,58.02c-.02,3.47,1.19,6.46,3.67,8.96,2.49,2.51,5.55,3.79,9.18,3.82,3.51.02,6.49-1.22,9-3.7,2.51-2.48,3.78-5.45,3.81-8.91l.36-58.03c0-.99.37-1.92,1.12-2.75.76-.82,1.71-1.22,2.86-1.21l7.96.05c1.16,0,2.11.42,2.88,1.25h0Z"/>
      </g>
      <g>
        <path class="cls-1" d="m553.36,40.01l.05-8.45c.02-3.48-1.21-6.49-3.68-8.98-2.46-2.49-5.46-3.78-8.93-3.8-3.5-.02-6.5,1.23-8.98,3.69-2.51,2.46-3.78,5.46-3.81,8.94l-.08,12.69c0,1.5.03,2.41.11,2.73.07.32.29.84.6,1.48l35.47,63.45c1.17,2.17,2.07,3.82,2.73,5,.64,1.17,1.11,2.26,1.33,3.26.25,1,.39,2.06.49,3.1.05,1.1.09,2.55.08,4.37l-.08,12.43c-.02,4.01-.78,7.73-2.29,11.22-1.52,3.46-3.61,6.47-6.28,9.04-2.67,2.56-5.73,4.55-9.12,6.04-3.42,1.47-7.12,2.21-11.09,2.18-3.99-.02-7.7-.8-11.07-2.32-3.41-1.54-6.42-3.55-9.07-6.15-2.64-2.6-4.69-5.65-6.14-9.12-1.48-3.51-2.22-7.24-2.19-11.25l.06-8.45c0-.99.38-1.89,1.15-2.72.72-.83,1.69-1.25,2.85-1.24l7.96.05c1.18,0,2.13.43,2.87,1.27.74.83,1.11,1.74,1.11,2.73l-.05,8.45c-.03,3.67,1.2,6.76,3.69,9.27,2.46,2.49,5.44,3.75,8.94,3.77,3.47.02,6.48-1.2,8.97-3.66,2.5-2.47,3.77-5.54,3.79-9.22l.08-12.43c0-1.35-.04-2.16-.11-2.49-.08-.35-.28-.83-.62-1.5l-35.46-63.45c-1.15-2.15-2.04-3.84-2.72-5-.64-1.15-1.1-2.24-1.34-3.24-.25-1-.39-2.1-.48-3.24-.07-1.17-.11-2.69-.1-4.49l.08-12.69c.02-3.99.8-7.68,2.32-11.1,1.5-3.36,3.59-6.42,6.26-9.03,2.67-2.67,5.72-4.71,9.14-6.17,3.39-1.49,7.12-2.19,11.1-2.17,3.96.02,7.66.78,11.06,2.31,3.38,1.5,6.41,3.58,9.05,6.27,2.64,2.65,4.69,5.73,6.16,9.11,1.48,3.43,2.18,7.14,2.16,11.12l-.05,8.45c-.01,2.68-1.34,3.99-3.99,3.98l-7.95-.05c-2.68-.01-3.99-1.34-3.98-4.02h0Z"/>
        <path class="cls-1" d="m637.62,4.67c.75.85,1.12,1.78,1.11,2.76l-.96,157.6c-.02,2.65-1.35,3.98-4.01,3.97l-7.73-.05c-2.65-.01-3.98-1.37-3.97-4.02l.43-70.7-25.65-.15-.43,70.69c-.02,2.65-1.33,3.99-4.01,3.97l-7.97-.04c-2.65-.01-3.96-1.37-3.94-4.02l.96-157.35v-.25c0-.99.37-1.92,1.13-2.75.74-.82,1.72-1.22,2.86-1.21l7.97.05c1.18,0,2.12.41,2.89,1.25.7.84,1.08,1.77,1.07,2.76l-.44,70.93,25.65.15.44-70.93c0-.99.38-1.91,1.13-2.75.75-.82,1.71-1.22,2.88-1.21l7.73.05c1.14,0,2.11.42,2.85,1.24h0Z"/>
        <path class="cls-1" d="m668.13,165.21c-.02,2.65-1.33,3.98-4.01,3.97l-7.98-.05c-2.67-.01-3.96-1.37-3.95-4.02l.96-157.35v-.25c0-.99.39-1.91,1.12-2.74.77-.82,1.72-1.22,2.87-1.21l7.98.05c1.15,0,2.11.42,2.84,1.25.75.84,1.12,1.78,1.12,2.76l-.96,157.6h0Z"/>
        <path class="cls-1" d="m723.45,32.83c.02-3.65-1.18-6.72-3.68-9.21-2.46-2.49-5.45-3.78-8.93-3.8l-12.68-.08-.36,58.77,12.67.08c3.49.02,6.48-1.23,8.97-3.69,2.54-2.49,3.77-5.47,3.79-8.94l.21-33.14h0Zm15.75,33.24c-.05,8.28-3.01,15.17-8.85,20.6,5.77,5.5,8.65,12.49,8.59,20.94l-.36,58.03c-.02,2.65-1.35,3.99-4,3.97l-8-.05c-2.65-.02-3.98-1.37-3.96-4.02l.36-58.02c.02-3.64-1.18-6.71-3.68-9.2-2.45-2.54-5.44-3.8-8.93-3.82l-12.67-.08-.43,70.97c0,1.17-.45,2.13-1.29,2.86-.85.74-1.76,1.12-2.75,1.11l-7.97-.05c-2.67-.02-3.97-1.37-3.96-4.02l.94-153.6c.01-2.2.78-4.05,2.26-5.62,1.51-1.54,3.43-2.33,5.76-2.31l20.64.12c3.99.03,7.71.78,11.2,2.31,3.48,1.51,6.48,3.58,9.05,6.28,2.53,2.65,4.59,5.76,6.05,9.25,1.46,3.49,2.21,7.22,2.18,11.2l-.2,33.15h0Z"/>
        <path class="cls-1" d="m789.23,5.6c.76.84,1.11,1.77,1.11,2.76l-.05,7.96c-.02,2.67-1.35,3.98-4.01,3.97l-11.2-.07-.89,145.65c-.02,2.65-1.35,3.98-4.01,3.97l-7.97-.05c-2.65-.01-3.98-1.37-3.96-4.02l.89-145.65-11.19-.07c-2.65-.02-3.98-1.35-3.97-4.01l.05-7.96c0-.99.38-1.91,1.15-2.75.74-.82,1.7-1.22,2.86-1.21l38.34.23c1.15.01,2.11.42,2.85,1.25h0Z"/>
      </g>
      <g>
        <path class="cls-1" d="m877.24,41.58l.05-8.45c.02-3.48-1.23-6.49-3.69-8.98-2.47-2.49-5.44-3.78-8.94-3.81-3.48-.02-6.48,1.23-8.97,3.69-2.5,2.46-3.76,5.46-3.78,8.94l-.66,108.27c-.02,3.52,1.2,6.5,3.68,9.01,2.45,2.5,5.44,3.75,8.92,3.77,3.51.02,6.48-1.19,8.99-3.67,2.49-2.48,3.78-5.44,3.8-8.96l.06-9.19c.02-2.66,1.33-3.96,3.99-3.95l7.98.05c2.66.02,3.96,1.34,3.94,4l-.06,9.19c-.02,4.02-.76,7.71-2.29,11.08-1.5,3.39-3.58,6.42-6.26,9.06-2.69,2.64-5.74,4.67-9.15,6.16-3.4,1.47-7.1,2.21-11.09,2.18-3.98-.03-7.72-.8-11.18-2.32-3.48-1.54-6.48-3.6-9.07-6.27-2.53-2.68-4.55-5.73-6.02-9.14-1.48-3.39-2.2-7.09-2.18-11.1l.66-108.27c.03-3.99.79-7.68,2.31-11.1,1.51-3.36,3.57-6.42,6.14-9.03,2.61-2.66,5.64-4.7,9.14-6.16,3.48-1.49,7.23-2.19,11.21-2.17,3.99.02,7.69.78,11.07,2.31,3.4,1.5,6.42,3.58,9.08,6.27,2.65,2.65,4.69,5.73,6.15,9.11,1.49,3.44,2.19,7.14,2.16,11.12l-.05,8.45c-.02,2.68-1.33,3.99-3.99,3.98l-7.98-.05c-2.66-.01-3.96-1.34-3.94-4.02h0Z"/>
        <path class="cls-1" d="m946.75,33.78c.02-3.65-1.19-6.72-3.67-9.21-2.5-2.49-5.44-3.77-8.94-3.8-3.65-.03-6.72,1.23-9.22,3.69-2.52,2.46-3.78,5.51-3.8,9.16l-.66,108.04c-.02,3.52,1.21,6.5,3.69,9.01,2.47,2.5,5.52,3.75,9.17,3.78,3.5.02,6.46-1.19,8.99-3.66,2.51-2.49,3.76-5.45,3.78-8.97l.66-108.04h0Zm-12.52-28.94c3.98.02,7.68.78,11.06,2.31,3.4,1.5,6.4,3.58,9.05,6.27,2.64,2.65,4.68,5.76,6.17,9.26,1.46,3.49,2.21,7.21,2.19,11.19l-.66,108.05c-.03,4-.83,7.73-2.33,11.22-1.53,3.46-3.61,6.47-6.28,9.04-2.67,2.56-5.7,4.56-9.12,6.04-3.4,1.47-7.11,2.21-11.09,2.18-3.99-.02-7.73-.8-11.17-2.32-3.51-1.54-6.56-3.55-9.19-6.15-2.68-2.6-4.72-5.65-6.17-9.12-1.47-3.51-2.22-7.25-2.19-11.25l.66-108.05c.02-3.98.8-7.7,2.33-11.17,1.48-3.48,3.56-6.56,6.27-9.17,2.66-2.67,5.74-4.71,9.26-6.17,3.46-1.49,7.21-2.19,11.19-2.17h0Z"/>
        <path class="cls-1" d="m1047.52,5.54c3.97.02,7.7.78,11.16,2.31,3.48,1.5,6.55,3.58,9.18,6.27,2.64,2.65,4.68,5.76,6.18,9.25,1.45,3.49,2.19,7.22,2.17,11.2l-.81,132.72c0,1.16-.44,2.12-1.25,2.85-.85.74-1.75,1.12-2.74,1.11l-7.99-.05c-2.66-.02-3.98-1.37-3.96-4.02l.81-132.72c.03-3.65-1.19-6.72-3.66-9.21-2.47-2.49-5.58-3.78-9.19-3.8-3.5-.02-6.52,1.23-9,3.69-2.5,2.46-3.78,5.51-3.8,9.16l-.82,132.72c-.01,2.65-1.33,3.99-4.01,3.97l-7.94-.04c-2.67-.02-3.98-1.38-3.96-4.02l.81-132.72c.02-3.64-1.2-6.72-3.69-9.21-2.47-2.49-5.45-3.77-8.93-3.8-3.66-.02-6.73,1.23-9.24,3.69-2.5,2.46-3.76,5.52-3.79,9.16l-.81,132.72c-.01,2.65-1.35,3.98-4,3.97l-8-.05c-.96,0-1.91-.39-2.69-1.14-.85-.74-1.25-1.71-1.24-2.88l.81-132.72c.03-3.98.78-7.7,2.33-11.17,1.5-3.48,3.59-6.56,6.25-9.18,2.67-2.66,5.77-4.71,9.27-6.16,3.49-1.5,7.23-2.2,11.21-2.18,3.98.03,7.74.84,11.31,2.42,3.55,1.59,6.67,3.82,9.3,6.67,2.66-2.82,5.79-5.01,9.37-6.56,3.56-1.53,7.36-2.31,11.36-2.28h0Z"/>
        <path class="cls-1" d="m1131.99,34.91c.02-3.65-1.2-6.72-3.7-9.2-2.46-2.49-5.45-3.78-8.93-3.8l-12.95-.09-.37,58.77,12.96.08c3.49.02,6.5-1.22,8.98-3.68,2.53-2.49,3.79-5.46,3.81-8.93l.2-33.15h0Zm-12.53-28.94c3.98.03,7.67.78,11.05,2.31,3.39,1.5,6.42,3.58,9.06,6.28,2.65,2.65,4.7,5.75,6.16,9.25,1.46,3.5,2.21,7.22,2.19,11.2l-.2,33.15c-.03,3.96-.83,7.71-2.33,11.17-1.5,3.49-3.58,6.49-6.27,9.05-2.67,2.56-5.72,4.59-9.13,6.04-3.39,1.49-7.09,2.2-11.08,2.18l-12.96-.09-.43,70.97c0,1.17-.37,2.13-1.1,2.85-.77.74-1.62,1.12-2.63,1.12l-7.96-.05c-2.67-.02-4.01-1.38-3.99-4.02l.43-70.97.1-15.9.43-70.47v-.25c0-.99.41-1.91,1.14-2.74.75-.82,1.72-1.22,2.9-1.21l24.63.15h0Z"/>
        <path class="cls-1" d="m1198.67,81.17l.28-45.84c.02-3.65-1.19-6.72-3.7-9.21-2.45-2.49-5.44-3.78-8.9-3.8-3.67-.03-6.75,1.23-9.25,3.69-2.52,2.46-3.78,5.52-3.8,9.16l-.28,45.84,25.65.15h0Zm-12.22-74.78c3.96.02,7.64.78,11.05,2.31,3.4,1.5,6.42,3.58,9.05,6.28,2.64,2.64,4.72,5.75,6.18,9.25,1.45,3.49,2.18,7.21,2.16,11.2l-.81,132.71c-.01,2.65-1.33,3.99-4.02,3.97l-7.94-.05c-2.66-.01-3.98-1.37-3.96-4.02l.43-70.97-25.64-.16-.43,70.97c-.01,2.65-1.33,3.98-4.01,3.97l-7.98-.05c-1,0-1.9-.4-2.73-1.15-.8-.74-1.23-1.7-1.22-2.87l.81-132.72c.03-3.98.8-7.69,2.33-11.17,1.51-3.48,3.6-6.56,6.27-9.18,2.66-2.65,5.78-4.7,9.25-6.16,3.49-1.49,7.23-2.19,11.25-2.17h0Z"/>
        <path class="cls-1" d="m1258.38,6.82c3.98.03,7.68.78,11.07,2.31,3.4,1.51,6.41,3.58,9.05,6.28,2.63,2.65,4.7,5.76,6.18,9.25,1.46,3.5,2.18,7.22,2.16,11.2l-.82,132.72c-.01,2.65-1.35,3.99-4,3.97l-7.96-.04c-2.69-.02-3.99-1.37-3.98-4.02l.82-132.72c.02-3.65-1.19-6.72-3.66-9.21-2.47-2.49-5.46-3.78-8.95-3.8-3.66-.02-6.73,1.23-9.24,3.69-2.48,2.46-3.76,5.51-3.78,9.16l-.81,132.72c-.02,2.65-1.34,3.99-4.01,3.97l-7.94-.05c-2.66-.02-4.01-1.37-3.99-4.02l.81-132.73c.03-3.98.81-7.7,2.31-11.17,1.53-3.48,3.61-6.56,6.29-9.18,2.66-2.66,5.77-4.7,9.25-6.17,3.51-1.48,7.24-2.19,11.21-2.17h0Z"/>
        <path class="cls-1" d="m1355.35,8.65c.74.85,1.1,1.78,1.1,2.76l-.35,58.02c-.04,6.61-2.05,12.42-5.94,17.38-3.94,4.96-8.91,8.31-14.91,10.11l-.44,71.96c0,1.17-.41,2.13-1.24,2.85-.83.75-1.77,1.12-2.75,1.12l-7.96-.05c-2.66-.02-4.01-1.38-3.99-4.02l.44-71.96c-6.12-1.88-11.12-5.28-14.99-10.3-3.85-5.01-5.77-10.84-5.73-17.45l.36-58.02c0-.99.37-1.91,1.14-2.75.75-.82,1.7-1.22,2.85-1.21l7.97.05c1.18,0,2.14.41,2.85,1.25.75.84,1.14,1.77,1.13,2.76l-.35,58.02c-.02,3.47,1.19,6.46,3.67,8.96,2.45,2.51,5.54,3.79,9.2,3.82,3.49.02,6.48-1.22,8.97-3.71,2.5-2.47,3.76-5.44,3.78-8.92l.35-58.02c0-.99.4-1.91,1.14-2.75.78-.82,1.72-1.22,2.89-1.21l7.97.05c1.15,0,2.11.41,2.85,1.24h0Z"/>
      </g>
    </g>
  </g>
</svg>