<svg width="366" height="22" viewBox="0 0 366 22" fill="none" xmlns="http://www.w3.org/2000/svg">
<g clip-path="url(#clip0_270_1122)">
<path d="M15.3561 2.27418V5.75863C13.657 4.33796 11.8995 3.6247 10.0836 3.6247C8.08091 3.6247 6.39934 4.3438 5.02722 5.78202C3.64926 7.21439 2.96028 8.96246 2.96028 11.0321C2.96028 13.1017 3.64926 14.803 5.02722 16.2061C6.40517 17.6093 8.09259 18.3167 10.0953 18.3167C11.1288 18.3167 12.0046 18.1472 12.7286 17.8139C13.1315 17.6444 13.5519 17.4164 13.984 17.1299C14.416 16.8434 14.8715 16.4985 15.3502 16.0951V19.6438C13.6687 20.5968 11.9053 21.0704 10.0544 21.0704C7.26932 21.0704 4.89876 20.0998 2.93108 18.153C0.98092 16.1945 0 13.8267 0 11.0555C0 8.5766 0.817433 6.36081 2.45814 4.41981C4.47253 2.03448 7.08248 0.847656 10.288 0.847656C12.0338 0.847656 13.727 1.32121 15.3561 2.27418Z" fill="#231F20"/>
<path d="M33.9182 12.4127L39.9438 20.7204H36.353L30.7944 12.7401H30.2631V20.7204H27.3262V1.22266H30.7711C33.3401 1.22266 35.2027 1.70791 36.3413 2.67256C37.6025 3.7483 38.2331 5.17482 38.2331 6.94043C38.2331 8.32018 37.836 9.507 37.0478 10.5009C36.2596 11.4948 35.2144 12.132 33.924 12.4068L33.9182 12.4127ZM30.2631 10.1793H31.1973C33.9766 10.1793 35.3721 9.11529 35.3721 6.98721C35.3721 4.99358 34.0175 3.99385 31.3141 3.99385H30.2689V10.1793H30.2631Z" fill="#231F20"/>
<path d="M61.3547 3.988H53.5482V8.67097H61.127V11.4363H53.5482V17.9492H61.3547V20.7145H50.6113V1.22266H61.3547V3.988Z" fill="#231F20"/>
<path d="M85.4284 15.9841H77.0965L74.9303 20.7196H71.7656L81.3938 0L90.6834 20.7138H87.4662L85.4226 15.9782L85.4284 15.9841ZM84.2315 13.2187L81.3471 6.58889L78.3226 13.2187H84.2373H84.2315Z" fill="#231F20"/>
<path d="M105.665 3.988V20.7146H102.728V3.988H98.2559V1.22266H110.132V3.988H105.671H105.665Z" fill="#231F20"/>
<path d="M124.472 1.22266V12.9681C124.472 14.6401 124.747 15.8679 125.29 16.6396C126.107 17.7563 127.251 18.3175 128.734 18.3175C130.217 18.3175 131.374 17.7563 132.191 16.6396C132.74 15.8913 133.008 14.6635 133.008 12.9681V1.22266H135.945V13.7749C135.945 15.827 135.309 17.5224 134.03 18.8495C132.594 20.3287 130.831 21.0712 128.734 21.0712C126.638 21.0712 124.881 20.3287 123.45 18.8495C122.172 17.5224 121.535 15.827 121.535 13.7749V1.22266H124.472Z" fill="#231F20"/>
<path d="M154.946 12.4127L160.971 20.7204H157.38L151.822 12.7401H151.29V20.7204H148.354V1.22266H151.793C154.367 1.22266 156.224 1.70791 157.363 2.67256C158.624 3.7483 159.255 5.17482 159.255 6.94043C159.255 8.32018 158.858 9.507 158.069 10.5009C157.281 11.4948 156.236 12.132 154.94 12.4068L154.946 12.4127ZM151.29 10.1793H152.225C155.004 10.1793 156.399 9.11529 156.399 6.9872C156.399 4.99358 155.045 3.99385 152.341 3.99385H151.296V10.1793H151.29Z" fill="#231F20"/>
<path d="M182.388 3.988H174.581V8.67097H182.16V11.4363H174.581V17.9492H182.388V20.7145H171.645V1.22266H182.388V3.988Z" fill="#231F20"/>
<path d="M204.995 4.12752L202.613 5.54235C202.169 4.77063 201.743 4.26199 201.34 4.02814C200.919 3.7592 200.376 3.62473 199.711 3.62473C198.893 3.62473 198.222 3.85859 197.679 4.32046C197.142 4.77647 196.873 5.34942 196.873 6.0393C196.873 6.99226 197.58 7.75814 198.993 8.33693L200.937 9.13204C202.519 9.7693 203.675 10.5527 204.405 11.4764C205.135 12.4002 205.503 13.5285 205.503 14.8674C205.503 16.6622 204.907 18.1413 203.71 19.3106C202.508 20.4916 201.019 21.0762 199.232 21.0762C197.545 21.0762 196.149 20.5734 195.046 19.5737C193.96 18.574 193.282 17.165 193.014 15.3468L195.991 14.692C196.126 15.8379 196.359 16.6271 196.698 17.0656C197.305 17.9075 198.187 18.3284 199.343 18.3284C200.26 18.3284 201.019 18.0186 201.626 17.4047C202.233 16.7908 202.531 16.0133 202.531 15.072C202.531 14.692 202.478 14.347 202.373 14.0313C202.268 13.7156 202.105 13.4233 201.883 13.1602C201.661 12.8971 201.375 12.6457 201.019 12.4177C200.668 12.1839 200.248 11.9675 199.757 11.7571L197.877 10.9737C195.215 9.8453 193.884 8.19662 193.884 6.0276C193.884 4.566 194.444 3.33826 195.559 2.35607C196.675 1.36218 198.07 0.865234 199.734 0.865234C201.976 0.865234 203.728 1.95851 204.989 4.14506L204.995 4.12752Z" fill="#231F20"/>
<path d="M265.63 9.39617H274.026V1.77246H276.963V21.2644H274.026V12.1615H265.63V21.2644H262.693V1.77246H265.63V9.39617Z" fill="#231F20"/>
<path d="M301.323 16.528H292.991L290.825 21.2636H287.66L297.288 0.549805L306.578 21.2636H303.361L301.317 16.528H301.323ZM300.126 13.7627L297.242 7.13285L294.217 13.7627H300.132H300.126Z" fill="#231F20"/>
<path d="M317.275 21.2644V1.77246H320.201C321.503 1.77246 322.542 1.87185 323.313 2.07647C324.095 2.2811 324.755 2.62019 325.292 3.09959C325.841 3.59654 326.273 4.21626 326.588 4.9529C326.915 5.70124 327.079 6.46127 327.079 7.22715C327.079 8.62444 326.547 9.80542 325.479 10.7759C326.512 11.1267 327.33 11.7464 327.925 12.6292C328.533 13.5062 328.83 14.5235 328.83 15.6869C328.83 17.2128 328.293 18.499 327.219 19.5514C326.571 20.2003 325.847 20.6505 325.035 20.9019C324.153 21.1474 323.05 21.2702 321.719 21.2702H317.27L317.275 21.2644ZM320.212 10.1445H321.135C322.227 10.1445 323.027 9.9048 323.535 9.41955C324.043 8.9343 324.299 8.22104 324.299 7.27977C324.299 6.3385 324.037 5.66616 323.517 5.19261C322.997 4.71905 322.238 4.47934 321.246 4.47934H320.212V10.1445ZM320.212 18.499H322.028C323.354 18.499 324.329 18.2359 324.953 17.7156C325.607 17.1543 325.934 16.4352 325.934 15.57C325.934 14.7047 325.619 14.0207 324.988 13.4477C324.375 12.8865 323.278 12.6 321.695 12.6H320.206V18.4932L320.212 18.499Z" fill="#231F20"/>
<path d="M343.228 1.77246V21.2644H340.291V1.77246H343.228Z" fill="#231F20"/>
<path d="M361.538 4.53781V21.2644H358.601V4.53781H354.129V1.77246H366.005V4.53781H361.544H361.538Z" fill="#231F20"/>
<path d="M235.175 5.09296C235.905 5.50805 236.272 6.22131 236.272 7.22105C236.272 8.33186 235.852 9.4076 235.005 10.4483C234.089 11.5825 233.032 12.1496 231.852 12.1496C231.245 12.1496 230.673 11.9625 230.136 11.5825C229.593 11.2083 229.324 10.571 229.324 9.67653C229.324 8.55987 229.745 7.48414 230.58 6.44348C231.502 5.30343 232.559 4.73633 233.756 4.73633C234.287 4.73633 234.754 4.85326 235.175 5.09296ZM231.28 11.2258C231.409 11.5182 231.648 11.6585 231.998 11.6585C232.647 11.6585 233.23 10.9101 233.75 9.41345C234.182 8.15647 234.398 7.06904 234.398 6.157C234.398 5.91145 234.369 5.72437 234.305 5.58406C234.188 5.32681 233.972 5.20404 233.651 5.20404C232.903 5.20404 232.279 5.99915 231.771 7.58352C231.379 8.78788 231.187 9.79346 231.187 10.5886C231.187 10.8575 231.222 11.068 231.286 11.22L231.28 11.2258Z" fill="#231F20"/>
<path d="M234.77 14.7858C234.496 14.5403 234.355 14.248 234.355 13.903C234.355 13.6516 234.437 13.4529 234.601 13.3008C234.764 13.1488 234.951 13.0728 235.161 13.0728C235.371 13.0728 235.547 13.143 235.704 13.2833C235.862 13.4236 235.944 13.6107 235.944 13.8504C235.944 13.979 235.903 14.1018 235.815 14.2304C235.733 14.3532 235.687 14.4409 235.687 14.4877C235.687 14.5461 235.716 14.5871 235.768 14.6163C235.821 14.6455 235.885 14.6631 235.961 14.6631C236.352 14.6631 236.65 14.3532 236.854 13.7276C237.059 13.1079 237.479 11.2955 238.121 8.27879L238.764 5.56606H237.614L237.759 4.92296H238.91C239.003 4.5371 239.196 4.01092 239.494 3.34443C239.791 2.67794 240.171 2.14592 240.632 1.73667C241.193 1.25142 241.765 1.01172 242.355 1.01172C242.828 1.01172 243.213 1.11695 243.517 1.33327C243.82 1.54959 243.972 1.86529 243.972 2.28623C243.972 2.53763 243.896 2.73641 243.738 2.88257C243.581 3.03457 243.4 3.11058 243.184 3.11058C242.968 3.11058 242.793 3.03457 242.641 2.88841C242.489 2.74225 242.413 2.56686 242.413 2.37393C242.413 2.23946 242.454 2.09915 242.536 1.95299C242.617 1.80683 242.664 1.72498 242.664 1.70159C242.664 1.66652 242.647 1.61974 242.612 1.56713C242.571 1.51451 242.501 1.49112 242.395 1.49112C242.109 1.49112 241.852 1.6899 241.625 2.08746C241.391 2.48501 241.181 3.0638 240.982 3.82384L240.691 4.92881H242.133L241.987 5.57191H240.574C239.826 9.22591 239.213 11.6229 238.735 12.763C238.051 14.3649 237.106 15.1659 235.885 15.1659C235.406 15.1659 235.033 15.0431 234.753 14.7975L234.77 14.7858Z" fill="#231F20"/>
<path d="M243.186 19.5381H228.285V21.9994H243.186V19.5381Z" fill="#231F20"/>
</g>
<defs>
<clipPath id="clip0_270_1122">
<rect width="366" height="22" fill="white"/>
</clipPath>
</defs>
</svg>
