<svg width="192" height="18" viewBox="0 0 192 18" fill="none" xmlns="http://www.w3.org/2000/svg">
<path d="M55.5215 15.9984L48.8203 2.06631C48.6869 1.80178 47.9193 0.158733 47.8511 0.0147095H44.3864C44.5198 0.0823123 45.0473 0.417387 45.5275 0.872972C45.7883 1.10517 46.0046 1.38146 46.1202 1.549C46.2358 1.7136 46.5855 2.08101 46.2506 2.68649C46.0135 3.11562 41.1677 13.6235 39.5939 16.5245C39.2945 17.0183 38.9626 17.3357 38.4083 17.7355C38.4024 17.7414 42.3858 17.7355 42.3858 17.7355C42.2969 17.6708 42.2169 17.6091 42.1398 17.5444C41.8167 17.3299 41.5945 17.0712 41.4729 16.7655C41.3099 16.4158 41.2892 16.0425 41.4522 15.6075C41.9442 14.2995 43.0349 12.1421 43.0349 12.1421H51.4107C51.4225 12.1685 53.2038 15.8132 53.2601 16.0807C53.266 16.1159 53.2808 16.1483 53.2868 16.1806C53.4201 16.6627 53.2038 17.0242 52.7888 17.3681C52.7355 17.4122 52.3413 17.662 52.119 17.7355H56.9234C56.7219 17.6032 56.547 17.4562 56.3929 17.2975C55.9839 16.9037 55.7823 16.5333 55.5245 16.0013L55.5215 15.9984ZM50.7912 10.8547H43.6454L47.2079 3.34782C47.2079 3.34782 50.5956 10.4402 50.7942 10.8547H50.7912Z" fill="black"/>
<path d="M174.623 15.9984L167.922 2.06631C167.788 1.80178 167.021 0.158733 166.953 0.0147095H163.488C163.621 0.0823123 164.149 0.417387 164.629 0.872972C164.89 1.10517 165.106 1.38146 165.222 1.549C165.337 1.7136 165.687 2.08101 165.352 2.68649C165.115 3.11562 160.269 13.6235 158.695 16.5245C158.396 17.0183 158.064 17.3357 157.51 17.7355C157.504 17.7414 161.487 17.7355 161.487 17.7355C161.398 17.6708 161.318 17.6091 161.241 17.5444C160.918 17.3299 160.696 17.0712 160.575 16.7655C160.411 16.4158 160.391 16.0425 160.554 15.6075C161.046 14.2995 162.136 12.1421 162.136 12.1421H170.512C170.524 12.1685 172.305 15.8132 172.362 16.0807C172.368 16.1159 172.382 16.1483 172.388 16.1806C172.522 16.6627 172.305 17.0242 171.89 17.3681C171.837 17.4122 171.443 17.662 171.221 17.7355H176.025C175.823 17.6032 175.649 17.4562 175.494 17.2975C175.085 16.9037 174.884 16.5333 174.626 16.0013L174.623 15.9984ZM169.893 10.8547H162.747L166.31 3.34782C166.31 3.34782 169.697 10.4402 169.896 10.8547H169.893Z" fill="black"/>
<path d="M7.42736 0.0117493H0C0.832837 0.467334 1.23888 1.34617 1.23888 2.73644V15.0108C1.23888 16.3981 0.835801 17.2799 0 17.7325H7.42736C14.0752 17.7325 17.1695 13.9438 17.1695 8.84421C17.1695 3.7446 14.0752 0.0117493 7.42736 0.0117493ZM7.42736 16.5862L3.3106 16.5598V1.18745L7.42736 1.161C12.6763 1.13454 14.7214 4.15022 14.7214 8.84715C14.7214 13.8645 12.9193 16.6127 7.42736 16.5862V16.5862Z" fill="black"/>
<path d="M30.9127 16.5862H24.4812V9.40856H29.4338C30.483 9.40856 31.3188 9.48792 31.9649 11.3308V6.31058C31.3188 8.17995 30.4859 8.25931 29.4338 8.25931H24.4812V1.16101H30.0799C32.4213 1.16101 33.4172 1.7224 34.3597 4.44415V0L21.1736 0.011757C22.0064 0.464402 22.4125 1.34618 22.4125 2.73351V15.0108C22.4125 16.3981 22.0094 17.2799 21.1736 17.7325H35.1955V13.3031C34.253 16.0248 33.2571 16.5862 30.9157 16.5862H30.9127Z" fill="black"/>
<path d="M82.2523 15.4135L75.6044 6.79263L81.2831 1.80178C82.116 1.08166 83.0585 0.493808 84.2173 0.0147095H79.3744C80.2636 0.602561 79.8042 1.6166 78.7283 2.55129L70.7082 9.59668V2.73646C70.7082 1.34913 71.1113 0.467355 71.9471 0.0147095H67.3976C68.2304 0.467355 68.6365 1.34913 68.6365 2.73646V15.0108C68.6365 16.3981 68.2334 17.2799 67.3976 17.7325H71.9471C71.1142 17.2799 70.7082 16.3981 70.7082 15.0108V11.0869L74.0721 8.12411L80.2073 16.1042C80.6103 16.6391 80.6103 17.224 79.9642 17.7325H84.8071C83.5949 17.0389 83.1652 16.6127 82.2493 15.4105L82.2523 15.4135Z" fill="black"/>
<path d="M102.045 2.73646V9.94351C102.045 13.7322 100.456 16.4011 96.6625 16.4011C93.4586 16.4011 90.7141 14.6933 90.6874 10.4491L90.6607 2.73646C90.6607 1.34913 91.0638 0.467355 91.8996 0.0147095H87.3501C88.1829 0.467355 88.589 1.34913 88.589 2.73646L88.6157 10.4491C88.6423 16.0542 91.6032 18.0029 96.0697 18.0029C101.209 18.0029 103.227 14.5611 103.227 9.94351V2.73646C103.227 1.34913 103.63 0.467355 104.466 0.0147095H100.806C101.639 0.467355 102.045 1.34913 102.045 2.73646V2.73646Z" fill="black"/>
<path d="M116.176 0.0117493H108.749C109.585 0.464395 109.988 1.34617 109.988 2.7335V15.0108C109.988 16.3981 109.585 17.2799 108.749 17.7325H116.176C122.824 17.7325 125.918 13.9438 125.918 8.84421C125.918 3.7446 122.821 0.0117493 116.176 0.0117493ZM116.176 16.5862L112.059 16.5598V1.18745L116.176 1.161C121.425 1.13454 123.47 4.15022 123.47 8.84715C123.47 13.8645 121.668 16.6127 116.176 16.5862V16.5862Z" fill="black"/>
<path d="M134.712 0.0117493H130.163C130.998 0.464395 131.401 1.34617 131.401 2.7335V15.0108C131.401 16.3981 130.998 17.2799 130.163 17.7325H134.712C133.876 17.2799 133.473 16.3981 133.473 15.0108V2.73644C133.473 1.34911 133.876 0.467334 134.712 0.0146885V0.0117493Z" fill="black"/>
<path d="M150.198 8.68549C152.486 8.15055 153.992 6.78967 153.992 4.3883C153.992 1.5578 152.027 0.0117493 147.777 0.0117493H139.623C140.459 0.464395 140.862 1.34617 140.862 2.7335V15.0108C140.862 16.3981 140.459 17.2799 139.623 17.7325H148.073C151.84 17.7325 154.614 16.2923 154.614 12.9033C154.614 10.1816 152.676 8.90006 150.201 8.68549H150.198ZM142.931 1.13161H147.774C150.412 1.13161 151.73 2.03984 151.73 4.65577C151.73 7.40398 150.412 8.12409 147.774 8.12409H142.931V1.13454V1.13161ZM148.07 16.6097H142.931V9.22044H148.07C150.841 9.22044 152.27 10.1287 152.27 12.9033C152.27 15.678 150.844 16.6127 148.07 16.6127V16.6097Z" fill="black"/>
<path d="M188.02 16.5862H182.421V2.73646C182.421 1.34913 182.824 0.467355 183.66 0.0147095H179.11C179.946 0.467355 180.349 1.34913 180.349 2.73646V15.0108C180.349 16.3981 179.946 17.2799 179.11 17.7325H192V12.8475C190.951 15.8103 190.251 16.5833 188.017 16.5833L188.02 16.5862Z" fill="black"/>
</svg>
