<?xml version="1.0" encoding="utf-8"?>
<!-- Generator: Adobe Illustrator 25.2.0, SVG Export Plug-In . SVG Version: 6.00 Build 0)  -->
<svg version="1.1" id="Layer_1" xmlns="http://www.w3.org/2000/svg" xmlns:xlink="http://www.w3.org/1999/xlink" x="0px" y="0px"
	 viewBox="0 0 2000 536.6" style="enable-background:new 0 0 2000 536.6;" xml:space="preserve">
<style type="text/css">
	.st0{fill-rule:evenodd;clip-rule:evenodd;fill:#E2000F;}
</style>
<path class="st0" d="M1908.9,101.3h-101.5l-42.9,109.1l-39.7-109.1h-104.3l97.4,208.1l-0.1,125.9h90.6l-0.2-126.8L1908.9,101.3
	L1908.9,101.3z M1337.2,192.1h72.7l-0.2,243.2h90.6V192.1h76.2v-90.4h-239.3V192.1L1337.2,192.1z M1290.1,414.7
	c-0.3-2.3-1.2-69.3-1.2-69.3c-0.6-51.9-36.5-67.2-36.5-67.2l-0.9-0.3c12.2-7.2,23.3-18.1,30.2-34.5l0.2-0.3
	c5.6-13.9,8.7-29.3,8.7-45.5c0-17.3-3.5-33.7-9.8-48.4l0.1,0.1c-21.3-51.7-91.1-48.4-91.1-48.4h-52.1h-90.4v333.6h90.4V321.7h38
	c0,0,27.8-0.7,27.5,41l1.5,38.7v25.5c0,0-0.2,8.4,8.9,8l77.2-0.1c6.5-0.3,1.8-6.4,1.8-6.4C1290,419.9,1290.1,414.7,1290.1,414.7
	L1290.1,414.7z M1204.4,228.6c-3.9,6.9-11.7,11.8-21,11.8c-1,0-2-0.1-3-0.3h-42.1v-53.5h46v0.4c7.4,0.3,14.6,3.9,18.3,9.4
	c3.4,5.7,5.5,10.9,5.5,17.5C1208.1,219,1206.9,224.6,1204.4,228.6L1204.4,228.6z M994.4,183.6l-0.1-82.3H783.4l-0.2,334.5l210.7-0.2
	l-0.2-83H868v-46.1h104.6l0.4-83.2l-104.9,0.2l0-39.8H994.4L994.4,183.6z M719.3,289c-6.5-15.7-17.4-26.3-29.5-33.5
	c9.4-6.4,17.7-15.2,23.1-27.3l0.2-0.3c5.2-12.4,8.1-26.1,8.1-40.5c0-15.3-3.3-29.8-9.3-42.9l0.1,0c-19.9-45.9-85.6-43.5-85.6-43.5
	l-142.8,0.2v334h143.9c0,0,69,6.9,92.5-52.1l0.2-0.2c5.6-13.9,8.6-29.4,8.6-45.6C729.1,320.1,725.6,303.7,719.3,289L719.3,289
	L719.3,289z M574.4,181.7h39.8c0,0,9.9-0.6,14.9,6.5c4.2,4.8,6.8,11.1,6.8,18c0,7-2.6,13.4-6.9,18.1l-0.2,0.3
	c-5,7.1-14.7,6.4-14.7,6.4h-39.8V181.7L574.4,181.7z M639,338.6c-3.9,6.9-11.7,11.8-21,11.8c-1,0-2-0.1-3-0.2h-40.5v-53.5h44.4v0.4
	c7.4,0.2,14.6,3.9,18.3,9.4c3.3,5.7,5.4,10.9,5.4,17.5C642.6,329,641.4,334.5,639,338.6L639,338.6z M344.9,435.3h90.4v-334h-90.4
	V435.3L344.9,435.3z M181.5,101.7H91.1v333.9h204.8v-90.4H181.5V101.7z"/>
</svg>
