<svg width="2000" height="282" viewBox="0 0 2000 282" fill="none" xmlns="http://www.w3.org/2000/svg">
<g clip-path="url(#clip0_1116_404)">
<path d="M288.14 216.69H37.92C35.94 216.69 34.1 217.75 33.12 219.48L24.12 235.06C21.97 238.77 24.65 243.4 28.92 243.4H297.14C301.42 243.4 304.1 238.78 301.96 235.06L292.96 219.48C291.96 217.75 290.13 216.69 288.14 216.69Z" fill="#006FAC"/>
<path d="M310.1 254.72H15.97C13.99 254.72 12.15 255.78 11.16 257.49L2.21997 272.98C0.0799727 276.69 2.75997 281.33 7.03997 281.33H319.05C323.32 281.33 326 276.7 323.86 272.98L314.92 257.49C313.93 255.78 312.1 254.72 310.11 254.72" fill="#009474"/>
<path d="M89.95 193.85C89.95 153.49 122.68 120.76 163.04 120.76C203.4 120.76 236.13 153.49 236.13 193.85C236.13 196.24 236.01 198.6 235.78 200.94C235.45 204.19 238.04 207 241.31 207H276.14C280.42 207 283.1 202.37 280.96 198.66L167.86 2.79001C165.71 -0.919993 160.36 -0.919993 158.22 2.79001L45.13 198.66C42.98 202.37 45.67 207 49.95 207H84.77C88.09 207 90.6 204.11 90.29 200.81C90.07 198.52 89.96 196.2 89.96 193.85" fill="#CD5946"/>
<path d="M390.92 243.3C387.3 243.3 384.94 239.43 386.66 236.23C387.75 234.21 388.64 232.07 389.33 229.82C390.87 224.78 391.72 220.28 391.89 216.35V64.97C391.71 61.04 390.87 56.55 389.33 51.49C388.64 49.25 387.75 47.12 386.66 45.09C384.94 41.9 387.29 38.02 390.93 38.02H464.77C478.11 38.02 490.21 40.77 501.06 46.24C511.93 51.71 520.43 59.28 526.6 68.95C532.76 78.61 535.83 89.34 535.83 101.15V101.91C535.83 118.34 531.6 132.46 523.13 144.25C514.66 156.05 501.02 164.62 482.2 169.91L434.3 184.18C431.06 185.15 428.84 188.14 428.84 191.53V216.35C429 220.28 429.87 224.77 431.39 229.82C432.08 232.07 432.97 234.2 434.06 236.23C435.79 239.42 433.43 243.3 429.79 243.3H390.91H390.92ZM470.14 137.59C479.89 135.19 487.13 130.96 491.83 124.89C496.53 118.81 498.89 111.84 498.89 103.98V102.69C498.89 94.15 496.07 87.04 490.42 81.39C484.78 75.74 476.91 72.92 466.82 72.92H433.67C431 72.92 428.84 75.09 428.84 77.76V141.88C428.84 145.04 431.8 147.36 434.87 146.57L470.14 137.59Z" fill="#19191E"/>
<path d="M748.76 226.19V194.89C748.76 190.45 754.17 188.44 757.21 191.7C762.1 196.93 767.88 201.16 774.55 204.42C785.57 209.8 798.29 212.5 812.65 212.5C823.6 212.5 833.47 210.67 842.29 206.98C851.09 203.31 855.84 197.95 856.53 190.94C857.21 185.29 855.76 180.42 852.17 176.31C848.59 172.21 843.91 168.7 838.18 165.79C832.46 162.89 824.45 159.56 814.19 155.79C800.5 150.65 789.25 145.78 780.45 141.16C771.64 136.54 764.07 130.22 757.74 122.18C751.41 114.15 748.16 104.04 747.99 91.9C747.99 80.95 751.11 71.08 757.36 62.27C763.59 53.47 772.37 46.57 783.65 41.61C794.94 36.66 807.94 34.18 822.66 34.18C844.19 34.18 862.32 38.58 877.06 47.38C879.42 48.79 880.9 51.29 880.9 54.03V85.19C880.9 89.45 875.84 91.59 872.74 88.66C867.51 83.75 861.42 79.74 854.48 76.64C843.53 71.76 832.58 69.33 821.63 69.33C811.37 69.33 802.81 71.12 795.97 74.71C789.13 78.31 785.71 83.69 785.71 90.88C785.71 96.01 787.55 100.46 791.23 104.23C794.91 108 799.57 111.16 805.22 113.72C810.87 116.29 818.65 119.46 828.58 123.21C842.77 128.35 854.36 133.22 863.34 137.84C872.31 142.46 879.84 148.97 885.92 157.34C891.99 165.73 894.69 176.32 894.01 189.16C893.49 200.96 889.73 211.27 882.72 220.08C875.71 228.89 866.25 235.65 854.37 240.35C842.48 245.05 829.18 247.4 814.47 247.4C791.66 247.4 771.1 242.57 752.76 232.91C750.28 231.61 748.79 228.99 748.79 226.2" fill="#19191E"/>
<path d="M923.41 226.19V194.89C923.41 190.45 928.82 188.44 931.86 191.7C936.75 196.93 942.53 201.16 949.2 204.42C960.22 209.8 972.94 212.5 987.3 212.5C998.25 212.5 1008.12 210.67 1016.94 206.98C1025.74 203.31 1030.49 197.95 1031.18 190.94C1031.86 185.29 1030.41 180.42 1026.82 176.31C1023.24 172.21 1018.56 168.7 1012.83 165.79C1007.1 162.89 999.1 159.56 988.84 155.79C975.15 150.65 963.9 145.78 955.1 141.16C946.29 136.54 938.72 130.22 932.39 122.18C926.06 114.15 922.81 104.04 922.64 91.9C922.64 80.95 925.76 71.08 932.01 62.27C938.24 53.47 947.02 46.57 958.3 41.61C969.59 36.66 982.59 34.18 997.31 34.18C1018.84 34.18 1036.97 38.58 1051.71 47.38C1054.07 48.79 1055.55 51.29 1055.55 54.03V85.19C1055.55 89.45 1050.49 91.59 1047.39 88.66C1042.16 83.75 1036.07 79.74 1029.13 76.64C1018.18 71.76 1007.23 69.33 996.28 69.33C986.02 69.33 977.46 71.12 970.62 74.71C963.78 78.31 960.36 83.69 960.36 90.88C960.36 96.01 962.2 100.46 965.88 104.23C969.56 108 974.23 111.16 979.87 113.72C985.52 116.29 993.3 119.46 1003.23 123.21C1017.42 128.35 1029.01 133.22 1037.98 137.84C1046.96 142.46 1054.49 148.97 1060.57 157.34C1066.64 165.73 1069.34 176.32 1068.66 189.16C1068.14 200.96 1064.38 211.27 1057.37 220.08C1050.36 228.89 1040.9 235.65 1029.02 240.35C1017.13 245.05 1003.83 247.4 989.12 247.4C966.31 247.4 945.75 242.57 927.41 232.91C924.93 231.61 923.44 228.99 923.44 226.2" fill="#19191E"/>
<path d="M1100.95 236.08C1103.82 231.11 1105.57 225.67 1106.17 219.74C1106.19 219.53 1106.2 219.32 1106.2 219.12V65.74C1105.96 58.08 1104.17 51.24 1100.83 45.26C1099.02 42.01 1101.18 38.03 1104.9 38.03H1218.19C1220.5 38.03 1222.5 39.66 1222.94 41.94L1228.37 69.79C1229.1 73.53 1225.42 76.62 1221.89 75.2C1220.98 74.84 1220.04 74.54 1219.1 74.33C1214.99 73.4 1209.77 72.93 1203.43 72.93H1147.72C1145.05 72.93 1142.89 75.08 1142.89 77.77V117.87C1142.89 120.54 1145.05 122.7 1147.72 122.7H1199.34C1203.96 122.7 1208.01 122.4 1211.52 121.81C1212.89 121.57 1214.27 121.22 1215.64 120.72C1218.71 119.62 1221.92 122.07 1221.92 125.34V155.23C1221.92 158.49 1218.72 160.94 1215.64 159.84C1214.27 159.36 1212.89 158.99 1211.52 158.76C1208.01 158.16 1204.12 157.87 1199.85 157.87H1147.72C1145.05 157.87 1142.89 160.02 1142.89 162.69V203.57C1142.89 206.24 1145.05 208.41 1147.72 208.41H1211.65C1217.97 208.41 1223.45 207.94 1228.08 207C1229 206.8 1229.89 206.57 1230.75 206.28C1234.34 205.06 1237.88 208.17 1237.07 211.86L1230.96 239.76C1230.48 241.99 1228.5 243.57 1226.22 243.56L1105.28 243.33C1101.57 243.33 1099.09 239.31 1100.94 236.1" fill="#19191E"/>
<path d="M1676.45 236.08C1679.32 231.11 1681.07 225.67 1681.67 219.74C1681.69 219.53 1681.7 219.32 1681.7 219.12V65.74C1681.46 58.08 1679.67 51.24 1676.33 45.26C1674.52 42.01 1676.68 38.03 1680.4 38.03H1793.69C1796 38.03 1798 39.66 1798.44 41.94L1803.87 69.79C1804.61 73.53 1800.92 76.62 1797.4 75.2C1796.48 74.84 1795.54 74.54 1794.6 74.33C1790.49 73.4 1785.27 72.93 1778.95 72.93H1723.22C1720.55 72.93 1718.39 75.08 1718.39 77.77V117.87C1718.39 120.54 1720.55 122.7 1723.22 122.7H1774.84C1779.46 122.7 1783.51 122.4 1787.02 121.81C1788.4 121.57 1789.77 121.22 1791.14 120.72C1794.21 119.62 1797.42 122.07 1797.42 125.34V155.23C1797.42 158.49 1794.22 160.94 1791.14 159.84C1789.77 159.36 1788.4 158.99 1787.02 158.76C1783.51 158.16 1779.62 157.87 1775.35 157.87H1723.22C1720.55 157.87 1718.39 160.02 1718.39 162.69V203.57C1718.39 206.24 1720.55 208.41 1723.22 208.41H1787.15C1793.47 208.41 1798.95 207.94 1803.58 207C1804.5 206.8 1805.39 206.57 1806.25 206.28C1809.84 205.06 1813.38 208.17 1812.57 211.86L1806.46 239.76C1805.98 241.99 1804 243.57 1801.72 243.56L1680.78 243.33C1677.07 243.33 1674.59 239.31 1676.44 236.1" fill="#19191E"/>
<path d="M1274.75 243.29C1271.03 243.29 1268.78 239.28 1270.59 236.01C1271.64 234.13 1272.52 232.24 1273.23 230.33C1274.86 225.98 1275.75 221.31 1275.92 216.35V64.6C1275.92 64.33 1275.9 64.06 1275.85 63.78C1274.65 56.09 1272.83 49.81 1270.41 44.96C1268.82 41.77 1271.16 38.03 1274.74 38.03H1312.35C1315.41 38.03 1317.49 40.78 1317.09 43.8C1317.02 44.35 1316.98 44.91 1316.98 45.46C1316.98 48.38 1318.09 51.71 1320.31 55.47L1385.9 158.77C1387.19 160.82 1390.35 159.9 1390.35 157.49V64.96C1390.11 58.01 1388.3 51.45 1384.93 45.27C1383.14 42 1385.38 38.03 1389.11 38.03H1428.56C1432.28 38.03 1434.53 42 1432.74 45.27C1429.36 51.45 1427.55 58.01 1427.31 64.96V216.87C1427.48 222 1428.38 226.61 1430.01 230.73C1430.69 232.45 1431.52 234.2 1432.54 235.97C1434.41 239.24 1432.17 243.3 1428.41 243.3H1391.41C1388.23 243.3 1385.75 240.24 1386.75 237.23C1387.28 235.59 1387.55 233.85 1387.55 232.02C1387.55 229.54 1386.83 226.82 1385.39 223.87C1385.3 223.66 1385.19 223.45 1385.07 223.27L1317.34 117.84C1316.04 115.81 1312.89 116.73 1312.89 119.15V216.37C1313.06 221.33 1313.95 226 1315.58 230.35C1316.29 232.26 1317.16 234.16 1318.22 236.03C1320.04 239.3 1317.79 243.31 1314.06 243.31H1274.77L1274.75 243.29Z" fill="#19191E"/>
<path d="M1516.51 231.88C1500.26 222.56 1487.52 209.8 1478.28 193.65C1469.05 177.48 1464.43 159.73 1464.43 140.41C1464.43 121.09 1469.12 103.37 1478.54 87.3C1487.94 71.22 1500.74 58.47 1516.9 49.07C1533.07 39.66 1550.72 34.95 1569.88 34.95C1579.81 34.95 1588.91 36.02 1597.21 38.16C1604.13 39.94 1610.95 42.71 1617.68 46.44C1620.15 47.81 1621.71 50.39 1621.71 53.19V85.24C1621.71 89.59 1616.43 91.69 1613.39 88.58C1611.85 86.99 1610.34 85.53 1608.89 84.21C1604.95 80.62 1599.6 77.37 1592.85 74.46C1586.09 71.56 1578.1 70.1 1568.87 70.1C1556.37 70.1 1544.96 73.27 1534.61 79.6C1524.25 85.92 1516.14 94.48 1510.23 105.25C1504.33 116.03 1501.38 127.75 1501.38 140.41C1501.38 153.07 1504.37 164.74 1510.36 175.43C1516.35 186.12 1524.51 194.66 1534.86 201.09C1545.22 207.5 1556.71 210.79 1569.38 210.96C1577.46 210.96 1585.11 209.81 1592.32 207.51C1595.47 206.5 1597.6 203.52 1597.6 200.2V165.55C1597.43 160.93 1595.17 156.66 1590.8 152.72C1590.03 152.02 1589.27 151.37 1588.52 150.8C1585.4 148.35 1586.27 143.44 1590.07 142.32L1628.34 130.96C1631.43 130.03 1634.55 132.36 1634.55 135.59V223.13C1634.55 225.86 1633.1 228.39 1630.74 229.77C1623.77 233.87 1615.51 237.44 1605.93 240.47C1594.55 244.05 1582.8 245.86 1570.66 245.86C1550.81 245.86 1532.76 241.2 1516.52 231.87" fill="#19191E"/>
<path d="M1851.82 243.3C1848.1 243.3 1845.91 239.28 1847.76 236.02C1851.1 230.09 1852.78 223.55 1852.78 216.36V65.17C1852.78 65.04 1852.78 64.91 1852.78 64.78C1852.59 61.55 1851.6 57.16 1849.84 51.62C1849.08 49.21 1848.19 46.99 1847.18 44.98C1845.57 41.78 1847.91 38.02 1851.5 38.02H1925.66C1939.01 38.02 1951.12 40.77 1961.97 46.24C1972.83 51.71 1981.34 59.28 1987.5 68.95C1993.66 78.61 1996.73 89.34 1996.73 101.15V101.91C1996.73 130.75 1984.91 151.16 1961.24 163.16C1958.81 164.4 1957.88 167.4 1959.21 169.8L1975.95 199.93C1981.93 210.55 1987.58 219.48 1992.88 226.75C1995.12 229.81 1997.48 232.55 1999.98 235C2003.09 238.03 2000.98 243.3 1996.64 243.3H1954.72C1951.79 243.3 1949.63 240.76 1949.94 237.85C1950 237.23 1950.04 236.57 1950.04 235.86C1950.04 232.04 1949.31 228.3 1947.86 224.64C1947.77 224.42 1947.67 224.19 1947.54 224L1923.64 180.21C1922.56 178.24 1920.27 177.28 1918.1 177.88L1895.32 184.26C1892.01 185.18 1889.73 188.2 1889.73 191.63V216.35C1889.9 221.48 1890.71 226.18 1892.16 230.46C1892.8 232.34 1893.66 234.2 1894.73 236.08C1896.58 239.28 1894.25 243.3 1890.54 243.3H1851.8H1851.82ZM1931.05 137.59C1940.62 135.37 1947.81 131.47 1952.6 125.92C1957.39 120.36 1959.79 113.65 1959.79 105.78V102.7C1959.79 94.16 1956.97 87.05 1951.32 81.4C1945.68 75.75 1937.81 72.93 1927.72 72.93H1894.58C1891.91 72.93 1889.74 75.1 1889.74 77.77V141.89C1889.74 145.05 1892.71 147.37 1895.77 146.58L1931.05 137.6V137.59Z" fill="#19191E"/>
<path d="M721.37 235.46C717.85 230.8 714.97 225.68 712.71 220.15C712.66 220.01 712.62 219.86 712.56 219.72L660.64 60.89C660.59 60.69 660.53 60.48 660.48 60.28C659.66 56.16 659.25 52.93 659.25 50.59C659.25 48.11 659.45 45.88 659.87 43.9C660.49 40.86 658.25 38.01 655.16 38.01H607.95C604.91 38.01 602.56 40.77 603.2 43.72C603.61 45.63 603.82 47.74 603.82 50.07C603.82 53.05 603.49 55.96 602.85 58.78C602.79 58.96 602.75 59.13 602.71 59.3L551.28 217.92C551.23 218.05 551.19 218.19 551.14 218.32C548.53 224.8 545.4 230.53 541.76 235.51C539.4 238.74 541.59 243.26 545.6 243.26H584.06C587.11 243.26 589.41 240.49 588.79 237.5C588.37 235.49 588.17 233.14 588.17 230.43C588.17 227.27 588.49 224.28 589.14 221.44C589.18 221.27 589.21 221.11 589.27 220.96L589.47 220.33C590.2 217.84 592.52 215.02 595.08 214.29L661.32 195.52C663.88 194.77 666.56 196.23 667.33 198.77L673.88 220.68C674.73 223.25 675.16 226.5 675.16 230.43C675.16 233.19 674.97 235.58 674.59 237.57C674.03 240.54 676.33 243.25 679.34 243.25H717.58C721.62 243.25 723.79 238.64 721.37 235.42M611.05 173.55C607.41 174.49 604.13 171.09 605.22 167.49L629.25 86.84C629.98 84.61 633.11 84.61 633.85 86.84L654.87 157.11C655.66 159.74 654.11 162.49 651.44 163.17L611.06 173.55H611.05Z" fill="#19191E"/>
</g>
</svg>
