<svg xmlns="http://www.w3.org/2000/svg" width="145.69" height="40.688" viewBox="0 0 145.69 40.688">
  <g id="Group_803" data-name="Group 803" transform="translate(1625.136 -148.979)">
    <g id="Group_796" data-name="Group 796" transform="translate(-1542.536 148.979)">
      <g id="Group_801" data-name="Group 801" transform="translate(27.148 0)">
        <path id="Path_3773" data-name="Path 3773" d="M-1277.631,134.435h9.411V137.1h-3.334v8.039h-2.744V137.1h-3.334Z" transform="translate(1277.631 -134.435)" fill="#e92e30"/>
        <path id="Path_3774" data-name="Path 3774" d="M-1220.987,134.435v10.7h-2.744v-3.978h-4.362v3.978h-2.73v-10.7h2.73v4.157h4.362v-4.157Z" transform="translate(1244.342 -134.435)" fill="#e92e30"/>
        <path id="Path_3775" data-name="Path 3775" d="M-1181.636,134.435h8.217V137.1h-5.473v1.537h4.5v2.483h-4.5v1.372h5.473v2.648h-8.217Z" transform="translate(1209.36 -134.435)" fill="#e92e30"/>
      </g>
      <g id="Group_799" data-name="Group 799" transform="translate(14.152 14.824)">
        <path id="Path_3776" data-name="Path 3776" d="M-1298.342,185.763h5.323c2.305,0,3.471,1.249,3.471,2.95a2.413,2.413,0,0,1-1.3,2.25,2.533,2.533,0,0,1,1.783,2.483c0,1.77-1.317,3.018-3.484,3.018h-5.789Zm2.744,2.5v1.7h2.264c.741,0,1.015-.343,1.015-.851a.783.783,0,0,0-.864-.851Zm0,3.841v1.879h2.744c.741,0,1.015-.4,1.015-.96s-.274-.919-1.015-.919Z" transform="translate(1298.342 -185.763)" fill="#e92e30"/>
        <path id="Path_3777" data-name="Path 3777" d="M-1252.173,185.763h8.217v2.661h-5.474v1.537h4.5v2.483h-4.5v1.372h5.474v2.648h-8.217Z" transform="translate(1265.507 -185.763)" fill="#e92e30"/>
        <path id="Path_3778" data-name="Path 3778" d="M-1204.936,185.763l4.322,10.7h-2.991l-.59-1.564h-4.211l-.59,1.564h-2.991l4.335-10.7Zm-1.358,3.512-1.179,3.141h2.345Z" transform="translate(1236.928 -185.763)" fill="#e92e30"/>
        <path id="Path_3779" data-name="Path 3779" d="M-1156.458,185.763a3.675,3.675,0,0,1,4.006,3.91,3.732,3.732,0,0,1-2.113,3.553l2.318,3.238h-3.278l-2.031-2.867h-1.4v2.867h-2.73v-10.7Zm-2.5,2.5v2.853h2.345a1.338,1.338,0,0,0,1.509-1.413,1.322,1.322,0,0,0-1.509-1.441Z" transform="translate(1201.153 -185.763)" fill="#e92e30"/>
      </g>
      <g id="Group_800" data-name="Group 800" transform="translate(0 29.448)">
        <path id="Path_3780" data-name="Path 3780" d="M-1313.609,237.11v10.7h-2.744v-3.978h-4.362v3.978h-2.73v-10.7h2.73v4.157h4.362V237.11Z" transform="translate(1323.445 -236.904)" fill="#e92e30"/>
        <path id="Path_3781" data-name="Path 3781" d="M-1271.358,236.4a5.631,5.631,0,0,1,5.68,5.556,5.631,5.631,0,0,1-5.68,5.556,5.657,5.657,0,0,1-5.679-5.556A5.657,5.657,0,0,1-1271.358,236.4Zm0,8.464a2.875,2.875,0,0,0,2.908-2.908,2.875,2.875,0,0,0-2.908-2.908,2.9,2.9,0,0,0-2.908,2.908A2.9,2.9,0,0,0-1271.358,244.861Z" transform="translate(1290.44 -236.397)" fill="#e92e30"/>
        <path id="Path_3782" data-name="Path 3782" d="M-1215.885,237.11v6.023a4.6,4.6,0,0,1-4.925,4.884,4.578,4.578,0,0,1-4.912-4.884V237.11h2.744v5.858c0,1.55.741,2.4,2.168,2.4s2.195-.851,2.195-2.4V237.11Z" transform="translate(1253.946 -236.904)" fill="#e92e30"/>
        <path id="Path_3783" data-name="Path 3783" d="M-1175.8,244.093v.069c0,.412.562.974,1.811.974,1.029,0,1.358-.343,1.358-.658,0-.453-.535-.727-1.825-1.166-1.7-.563-3.937-1.386-3.937-3.595,0-2.044,1.742-3.32,4.185-3.32,2.5,0,4.376,1.331,4.376,3.457v.151h-2.675v-.1c0-.521-.535-1.138-1.646-1.138-.933,0-1.3.371-1.3.727,0,.425.494.645,1.77,1.084,1.482.521,4.006,1.4,4.006,3.745,0,2.085-1.811,3.183-4.252,3.183-2.566,0-4.541-1.194-4.541-3.292v-.124Z" transform="translate(1220.342 -236.397)" fill="#e92e30"/>
        <path id="Path_3784" data-name="Path 3784" d="M-1133.59,237.11h8.218v2.661h-5.474v1.536h4.5v2.483h-4.5v1.372h5.474v2.648h-8.218Z" transform="translate(1188.422 -236.904)" fill="#e92e30"/>
      </g>
    </g>
    <g id="Group_789" data-name="Group 789" transform="translate(-1625.136 159.087)">
      <path id="Path_3785" data-name="Path 3785" d="M-1180.2,421.564l-.008,0c-.8-.6-1.547-3.154-2-3.948a.737.737,0,0,0-.5-.344c-.717-.164-5.109-.95-6.838-1.3a10.343,10.343,0,0,0,.144,1.156,4.05,4.05,0,0,0,.387,1.083,21.579,21.579,0,0,0,1.473,1.65c.219.241.448.474.67.712a.467.467,0,0,1,.053.093c-.023.023-.032.039-.046.046-.064.035-.129.07-.195.1a3.461,3.461,0,0,0-1.155.88,2.742,2.742,0,0,0-.587,1.219c-.033.155.011.213.163.238a.878.878,0,0,0,.122.005c1.28.017,2.559.141,3.839.157.375,0,.751,0,1.126,0a7.04,7.04,0,0,0,2.632-.374A2.1,2.1,0,0,0-1180.2,421.564Z" transform="translate(1222.593 -394.575)" fill="#e92e30"/>
      <g id="Group_788" data-name="Group 788" transform="translate(0 0)">
        <path id="Path_3786" data-name="Path 3786" d="M-1240.56,432.414c-.841.141-2.4.345-2.865.927-.649.815-.632,1.062-.632,1.062a5.338,5.338,0,0,0,1.482.344C-1242.49,434.583-1241.939,432.867-1240.56,432.414Z" transform="translate(1258.933 -405.538)" fill="#e92e30"/>
        <path id="Path_3787" data-name="Path 3787" d="M-1238.872,377.4a10.947,10.947,0,0,0-.512-1.354,13.074,13.074,0,0,1-.651-1.487,5.208,5.208,0,0,1-.306-1.525,6.01,6.01,0,0,1,.108-1.75c.24-1.13.5-2.255.748-3.384.171-.786.331-1.575.492-2.363a13.763,13.763,0,0,0,.21-1.792,5,5,0,0,0-.275-1.874,16.968,16.968,0,0,0-.88-2.277,15.1,15.1,0,0,0-.953-1.759,11.3,11.3,0,0,0-1.945-2.34c-.293-.258-.584-.521-.893-.758a8.42,8.42,0,0,0-1.771-1.028,7.743,7.743,0,0,0-1.2-.417c-.511-.128-1.035-.215-1.556-.3-.466-.072-.935-.125-1.4-.163-.406-.033-.814-.047-1.221-.045-.872.006-1.744.027-2.615.043a.942.942,0,0,0-.1.006l-1.21.14c-.428.05-.857.094-1.283.154-.523.073-1.043.164-1.566.239-.386.056-.776.088-1.161.15a6.006,6.006,0,0,1-1.75.043,3.379,3.379,0,0,1-1.163-.349c-.416-.223-.824-.462-1.226-.71a4.549,4.549,0,0,0-2.529-.7c-.405.009-.811.052-1.214.1a5.406,5.406,0,0,0-.79.156,9.664,9.664,0,0,0-2.175.985,6.982,6.982,0,0,1-2.749,1.026c-.081.009-.161.019-.242.03a4.885,4.885,0,0,1,2.063,1.714c.1.163-.439-.2-.707-.377a18.232,18.232,0,0,0-2-1.094,4.719,4.719,0,0,0-2.132-.533,5.112,5.112,0,0,0-1.436.135,3.532,3.532,0,0,0-.715.238,1.962,1.962,0,0,1-.791.248.327.327,0,0,1-.21-.092c-.292-.3-.572-.6-.863-.9a1.406,1.406,0,0,0-.624-.371c-.262-.074-.351-.047-.485.186a5.841,5.841,0,0,0-.374.741c-.21.521-.4,1.05-.594,1.577a.4.4,0,0,1-.239.258c-.358.134-.724.254-1.072.411-.518.235-1.032.485-1.531.758a1.01,1.01,0,0,0-.374.4c-.189.36-.343.738-.505,1.112a.278.278,0,0,1-.191.172c-.141.04-.282.081-.421.126a17.034,17.034,0,0,0-1.757.66,2.421,2.421,0,0,0-.953.621.392.392,0,0,0-.093.19,1.139,1.139,0,0,0,.062.576,4.373,4.373,0,0,0,.615,1.023c.3.374.612.74.92,1.108a1.352,1.352,0,0,0,.708.494,15.671,15.671,0,0,0,1.73.3c.355.048.711.08,1.066.126.4.052.8.114,1.208.167.354.047.71.082,1.064.133s.724.105,1.082.176a4.071,4.071,0,0,1,1.124.386,9.578,9.578,0,0,0,1.222.548c.606.19,1.21.382,1.833.512.526.109,1.053.211,1.579.319a5,5,0,0,1,1.083.286,3.311,3.311,0,0,1,1.286,1.1,8.285,8.285,0,0,1,1.082,2.074c.175.473.344,1.114.47,1.6a17.818,17.818,0,0,1,.51,2.415c.051.348.076.577.119,1.1.039.47.06.721.109,1.408.022.308.061.782.061,1.385,0,.22.012.633.04.851a4.111,4.111,0,0,0,1.257-1.222c.466-.98,1.066-2.5-.912-7.854-.328-.888-.789-1.9-.132-.467,1.479,3.232,1.923,4.346,2.09,5.533a4.832,4.832,0,0,1-.595,3.506,3.659,3.659,0,0,1-.983.841l.008,0a5.269,5.269,0,0,0-2.454,2.3h0a3.049,3.049,0,0,0-.153.664c-.037.339-.022.331.312.37a52.066,52.066,0,0,0,6.726.324l1.508,0a1.673,1.673,0,0,0,.426-.076c.325-.135.4-.714.419-.852.049-.493.1-.987.146-1.48.036-.356.058-.714.115-1.067a9.562,9.562,0,0,1,.509-1.808c.42-1.121.868-2.231,1.318-3.34.33-.815.681-1.622,1.025-2.431a.575.575,0,0,1,.084-.112c.279.181.547.359.818.53,1.678.833,8.819,2.059,9.85,2.239a.65.65,0,0,1,.374.307c.3.518.773,2.038,1.321,3.018a9.965,9.965,0,0,0,.952,1.408c.312.349.561.624.561.624a10.187,10.187,0,0,0-1.2,1.287c-.292.478-.225,1.629.014,1.65.559.05,3.183.132,3.964.121a3.781,3.781,0,0,0,1.781-.324,3.5,3.5,0,0,0,.525-.359,3.165,3.165,0,0,0,1.129-1.866A5.8,5.8,0,0,0-1238.872,377.4Z" transform="translate(1288.67 -351.811)" fill="#e92e30"/>
      </g>
    </g>
    <g id="Group_798" data-name="Group 798" transform="translate(-1561.886 148.979)">
      <rect id="Rectangle_757" data-name="Rectangle 757" width="29.566" height="2.183" transform="translate(4.107 0) rotate(90)" fill="#e92e30"/>
      <g id="Group_797" data-name="Group 797" transform="translate(0 34.595)">
        <g id="Group_790" data-name="Group 790" transform="translate(1.909 1.641)">
          <path id="Path_3788" data-name="Path 3788" d="M-1124.313,310.232a.945.945,0,0,1,1.03,1.005.96.96,0,0,1-.543.913l.6.832h-.843l-.522-.737h-.359v.737h-.7v-2.751Zm-.642.642v.734h.6a.344.344,0,0,0,.388-.363.34.34,0,0,0-.388-.371Z" transform="translate(1125.657 -310.232)" fill="#e92e30"/>
        </g>
        <g id="Group_791" data-name="Group 791">
          <path id="Path_3789" data-name="Path 3789" d="M-1128.474,311.251a3.019,3.019,0,0,1-3.016-3.016,3.019,3.019,0,0,1,3.016-3.016,3.019,3.019,0,0,1,3.016,3.016A3.019,3.019,0,0,1-1128.474,311.251Zm0-5.738a2.725,2.725,0,0,0-2.722,2.722,2.725,2.725,0,0,0,2.722,2.722,2.725,2.725,0,0,0,2.722-2.722A2.725,2.725,0,0,0-1128.474,305.514Z" transform="translate(1131.49 -305.22)" fill="#e92e30"/>
        </g>
      </g>
    </g>
  </g>
</svg>
